<?xml version="1.0" encoding="utf-8"?>
<!-- Generator: Adobe Illustrator 23.0.0, SVG Export Plug-In . SVG Version: 6.00 Build 0)  -->
<svg version="1.1" id="Capa_1" xmlns="http://www.w3.org/2000/svg" xmlns:xlink="http://www.w3.org/1999/xlink" x="0px" y="0px"
	 viewBox="0 0 165.84 159.55" style="enable-background:new 0 0 165.84 159.55;" xml:space="preserve">
<style type="text/css">
	.st0{fill:#FFFFFF;}
</style>
<g>
	<path class="st0" d="M100.78,109.53c-2.91-3.2-5.28-5.87-7.31-8.1c-0.45-0.51-0.95-0.62-1.38-0.28c-1.16,0.9-8.92,5.91-10.24,7.01
		c-0.49,0.41-1.04,0.32-1.44-0.21c-5.37-6.94-8.53-10.35-13.53-12.93c-2.54-1.32-4.21-2.49-8.24-3.74c-0.31-0.09-0.66-0.12-1.07-0.1
		c-6.44,0.38-16.19,0.99-29.89,1.83c-6.03,0.29-9.47,4.05-4.18,4.65c21.59,2.22,29.32,4.58,35.23,9.39
		c5.68,5.18,9.53,12.83,18.54,33.95c0.66,1.44,1.6,1.69,2.45,0.65c7.02-8.5,16.22-20.15,20.37-24.89
		C101.4,115.1,102.48,111.31,100.78,109.53z"/>
	<path class="st0" d="M27.51,85.16c-5.9,0.88-4.57,4.29,1.45,4.09c12.86-0.28,22.87,0.78,29.3,0.59c0.29-0.01,0.56-0.19,0.67-0.45
		c0.12-0.28-0.94-12.13-1.13-13.97v-0.05c0.01-0.47,0.35-0.83,1.04-0.94C71.35,72.54,74.18,69.2,84,61.13
		c0.49-0.41,1.04-0.32,1.44,0.22c8.1,10.45,11.14,12.87,23.12,16.6c0.31,0.09,0.67,0.12,1.07,0.1c6.46-0.39,14.84-0.96,28.53-1.79
		c6.04-0.28,9.47-4.04,4.18-4.64c-28.27-3.45-32.82-5.18-40.24-15.28c-3.61-5.47-6.88-13.46-13.52-28.06
		c-0.65-1.44-1.59-1.69-2.44-0.64C71.99,46.02,65.54,53.6,57.39,58.05c-8.65,4.17-18.98,5.18-52.71,3.89
		c-5.59-0.19-6.55,2.73-0.85,4.74c21.47,7.63,35.35,12.15,44.91,15.22C43.41,82.73,36.7,83.73,27.51,85.16z"/>
	<path class="st0" d="M162.01,102.61c-10.73-3.82-19.56-6.86-26.92-9.32c-7.34-2.47-13.2-4.36-17.98-5.9h-0.02c0,0,0.01,0,0.02,0h0
		c5.35-0.83,12.07-1.83,21.27-3.26c5.91-0.89,4.57-4.29-1.45-4.09c-13.63,0.29-21.9,0.5-28.24,0.63c-0.39,0.01-0.79,0.07-1.16,0.18
		c-1.98,0.57-3.73,1.08-5.3,1.55c-1.75-0.64-3.26-1.24-4.63-1.83c-1.37-0.58-2.58-1.16-3.71-1.75c-3.38-1.79-6.01-3.71-9.29-6.77
		c-0.33-0.31-0.73-0.35-1.1-0.13c-5.85,3.54-7.6,5.38-14.91,7.07l-1.7,0.38c-0.1,0.02-0.19,0.04-0.29,0.06
		c-0.02,0.01-0.03,0.01-0.05,0.01l-0.21,0.05l0.16,0.1c-0.05-0.02-0.11-0.05-0.16-0.08l0.9,8.37c7.18,2.82,8.62,4.6,13.71,9.25
		c0.32,0.3,0.73,0.35,1.1,0.12c2.99-1.85,5.52-3.17,8.28-4.26c0.88-0.36,0.69-1.8-0.23-2.38c-1.57-1.01-2.91-1.86-4.17-2.66
		c-0.28-0.18-0.62-0.21-0.9-0.09c-0.8,0.31-1.59,0.64-2.38,1c-0.29,0.13-0.63,0.1-0.9-0.07c-2.63-1.72-5.07-3.14-8.37-4.85
		l0.99-0.36l0,0c3.26-1.1,5.71-2.06,8.53-3.28c0.29-0.12,0.63-0.1,0.9,0.07c3.43,2.23,6.15,3.77,11.01,6.19
		c-0.12-0.06-0.23-0.13-0.31-0.21c0.1,0.08,0.2,0.15,0.32,0.21c1.37,0.68,2.89,1.42,4.66,2.28c-0.3-0.14-0.59-0.28-0.88-0.41
		c2.47,1.19,5.42,2.6,9.04,4.31c1.95,0.9,2.41,2.73,0.72,2.98c-4.88,0.69-8.35,1.53-11.49,2.71c-1.04,0.37-0.53,2.6,1.07,3.92
		c2.66,2.14,5.8,4.65,9.53,7.6c0.85,0.66,1.67,0.93,2.19,0.69c9.26-3.72,18.23-4.29,51.52-3.3
		C166.75,107.56,167.71,104.62,162.01,102.61z"/>
</g>
</svg>
